HIERARCHY
ROOT Hips
{
  OFFSET -0.722415 0.00 -5.77264
  CHANNELS 6 Xposition Yposition Zposition Zrotation Xrotation Yrotation
  JOINT LHipJoint
  {
    OFFSET 0 0 0
    CHANNELS 3 Zrotation Xrotation Yrotation
    JOINT LeftUpLeg
    {
      OFFSET 1.8 -1.4 0.085
      CHANNELS 3 Zrotation Xrotation Yrotation
      JOINT LeftLeg
      {
        OFFSET 2.215 -6 0
        CHANNELS 3 Zrotation Xrotation Yrotation
        JOINT LeftFoot
        {
          OFFSET 2.5 -6.9 0
          CHANNELS 3 Zrotation Xrotation Yrotation
          JOINT LeftToeBase
          {
            OFFSET 0.2 -0.5 1.95
            CHANNELS 3 Zrotation Xrotation Yrotation
            End Site
            {
              OFFSET 0 0 1
            }
          }
        }
      }
    }
  }
  JOINT RHipJoint
  {
    OFFSET 0 0 0
    CHANNELS 3 Zrotation Xrotation Yrotation
    JOINT RightUpLeg
    {
      OFFSET -1.8 -1.4 0.085
      CHANNELS 3 Zrotation Xrotation Yrotation
      JOINT RightLeg
      {
        OFFSET -2.215 -6 0
        CHANNELS 3 Zrotation Xrotation Yrotation
        JOINT RightFoot
        {
          OFFSET -2.5 -6.9 0
          CHANNELS 3 Zrotation Xrotation Yrotation
          JOINT RightToeBase
          {
            OFFSET -0.2 -0.5 1.95
            CHANNELS 3 Zrotation Xrotation Yrotation
            End Site
            {
              OFFSET 0 0 1
            }
          }
        }
      }
    }
  }
  JOINT LowerBack
  {
    OFFSET 0 0 0
    CHANNELS 3 Zrotation Xrotation Yrotation
    JOINT Spine
    {
      OFFSET -0.087 1.94 -0.2889
      CHANNELS 3 Zrotation Xrotation Yrotation
      JOINT Spine1
      {
        OFFSET 0 1.95 0.06
        CHANNELS 3 Zrotation Xrotation Yrotation
        JOINT Neck
        {
          OFFSET 0 0 0
          CHANNELS 3 Zrotation Xrotation Yrotation
          JOINT Neck1
          {
            OFFSET 0 1.6 0.34
            CHANNELS 3 Zrotation Xrotation Yrotation
            JOINT Head
            {
              OFFSET 0 1.667 -0.24
              CHANNELS 3 Zrotation Xrotation Yrotation
              End Site
              {
                OFFSET 0 1.686 -0.12
              }
            }
          }
        }
        JOINT LeftShoulder
        {
          OFFSET 0 0 0
          CHANNELS 3 Zrotation Xrotation Yrotation
          JOINT LeftArm
          {
            OFFSET 2.7 1.55 -0.73
            CHANNELS 3 Zrotation Xrotation Yrotation
            JOINT LeftForeArm
            {
              OFFSET 5.45 0 0
              CHANNELS 3 Zrotation Xrotation Yrotation
              JOINT LeftHand
              {
                OFFSET 3.45 0 0
                CHANNELS 3 Zrotation Xrotation Yrotation
                JOINT LeftFingerBase
                {
                  OFFSET 0 0 0
                  CHANNELS 3 Zrotation Xrotation Yrotation
                  JOINT LeftHandIndex1
                  {
                    OFFSET 0.75 0 0
                    CHANNELS 3 Zrotation Xrotation Yrotation
                    End Site
                    {
                      OFFSET 0.6 0 0
                    }
                  }
                }
                JOINT LThumb
                {
                  OFFSET 0 0 0
                  CHANNELS 3 Zrotation Xrotation Yrotation
                  End Site
                  {
                    OFFSET 0.59 0 0.59
                  }
                }
              }
            }
          }
        }
        JOINT RightShoulder
        {
          OFFSET 0 0 0
          CHANNELS 3 Zrotation Xrotation Yrotation
          JOINT RightArm
          {
            OFFSET -2.7 1.55 -0.73
            CHANNELS 3 Zrotation Xrotation Yrotation
            JOINT RightForeArm
            {
              OFFSET -5.45 0 0
              CHANNELS 3 Zrotation Xrotation Yrotation
              JOINT RightHand
              {
                OFFSET -3.45 0 0
                CHANNELS 3 Zrotation Xrotation Yrotation
                JOINT RightFingerBase
                {
                  OFFSET 0 0 0
                  CHANNELS 3 Zrotation Xrotation Yrotation
                  JOINT RightHandIndex1
                  {
                    OFFSET -0.75 0 0
                    CHANNELS 3 Zrotation Xrotation Yrotation
                    End Site
                    {
                      OFFSET -0.6 0 0
                    }
                  }
                }
                JOINT RThumb
                {
                  OFFSET 0 0 0
                  CHANNELS 3 Zrotation Xrotation Yrotation
                  End Site
                  {
                    OFFSET -0.59 0 0.59
                  }
                }
              }
            }
          }
        }
      }
    }
  }
}
MOTION
Frames:	11
Frame Time:	0.00833333
-0.722743 18.5022 -5.77204 0.000967367 0.00125517 0.0012594 9.37808e-021 0 -3.88251e-019 -18.5579 -4.06729 1.51708 2.73914 2.1129 18.4396 -1.85888 2.67814 -20.0612 -1.99669e-015 0 -9.70628e-020 9.37808e-021 0 -3.88251e-019 19.5956 -0.457976 -0.256909 0.0430773 2.73682 -0.568962 0.652722 -2.26888 0.86125 -4.28428e-016 -3.88251e-019 -1.55301e-018 9.37808e-021 0 -3.88251e-019 -0.000703118 -0.00715786 -0.00839895 -3.78159e-005 0.0041148 -0.000460911 0.00146795 -15.9981 -0.000283536 0.00167527 21.0019 -0.000737128 -0.001434 10.9963 0.000913659 0.32201 0.00804316 3.47642 -19.5005 -38.2412 -17.1642 -8.43647 39.1926 0.000934625 3.12977 1.04946 4.86821 6.8922e-009 -1.38323e-007 8.40541e-007 6.8922e-009 -1.38323e-007 8.40541e-007 1.2424e-015 9.93923e-017 -0 -0.308739 0.0033865 -3.4687 20.4324 -33.9337 15.0293 -15.5159 66.3465 14.712 20.9625 -5.97467 -18.7615 5.56597e-015 -3.18055e-015 -1.59028e-015 7.95139e-016 -6.36111e-015 -1.59028e-015 5.56597e-015 -3.18055e-015 -1.59028e-015 
-0.724088 18.5021 -5.7697 0.000966742 0.00666843 0.00561157 3.87683e-020 0 -0 -18.5567 -4.05853 1.52411 2.73553 2.11209 18.4047 -1.83608 2.65024 -20.0415 1.32374e-015 0 7.76503e-019 3.87683e-020 0 -0 19.6024 -0.477927 -0.248013 0.0434315 2.77245 -0.568979 0.623452 -2.28305 0.867297 -4.7201e-015 1.55301e-018 6.21202e-018 3.87683e-020 0 -0 -0.00233089 -0.0368256 -0.00839895 -0.00157837 0.021337 -0.00225166 0.00751926 -15.99 -0.00135438 0.00854392 21.0099 -0.00367102 -0.00746454 10.9802 0.00508788 0.32201 0.00804316 3.47642 -19.4932 -38.2411 -17.1378 -8.4452 39.1602 0.000934194 3.09937 1.04806 4.89599 6.8922e-009 -1.38323e-007 8.40541e-007 6.8922e-009 -1.38323e-007 8.40541e-007 1.04362e-015 -9.93923e-017 -1.59028e-015 -0.308739 0.0033865 -3.4687 20.4418 -33.93 15.0292 -15.5309 66.3641 14.7228 20.9788 -5.97985 -18.7687 -0 -6.36111e-015 -0 2.38542e-015 -3.18055e-015 -0 -0 -6.36111e-015 -0 
-0.725439 18.502 -5.76738 0.000965306 0.0121445 0.00985408 -4.73181e-019 0 -0 -18.5556 -4.04988 1.5311 2.7319 2.11172 18.3687 -1.81313 2.62164 -20.0207 7.48962e-016 1.55301e-018 -0 -4.73181e-019 0 -0 19.6092 -0.498586 -0.238871 0.043795 2.809 -0.568996 0.59381 -2.29738 0.873405 -2.34864e-015 -3.10601e-018 -1.2424e-017 -4.73181e-019 0 -0 -0.00376911 -0.0666591 -0.00839896 -0.00334024 0.0386813 -0.00403395 0.0135996 -15.982 -0.00241501 0.0154402 21.018 -0.00660286 -0.01354 10.9638 0.0093448 0.32201 0.00804316 3.47642 -19.4859 -38.2412 -17.1113 -8.45383 39.1275 0.00093376 3.06817 1.04667 4.92395 6.8922e-009 -1.38323e-007 8.40541e-007 6.8922e-009 -1.38323e-007 8.40541e-007 1.83876e-015 0 3.18055e-015 -0.308739 0.0033865 -3.4687 20.4515 -33.9262 15.0296 -15.5462 66.3821 14.7336 20.9955 -5.98515 -18.7761 2.38542e-015 -3.18055e-015 -1.59028e-015 1.59028e-015 0 1.59028e-015 2.38542e-015 -3.18055e-015 -1.59028e-015 
-0.726731 18.5019 -5.76491 0.000962873 0.0169296 0.0153029 3.46545e-019 0 -0 -18.5536 -4.04002 1.53853 2.72849 2.1065 18.3443 -1.79158 2.60064 -20.013 -1.15776e-015 3.10601e-018 -1.55301e-018 3.46545e-019 0 -0 19.6155 -0.511464 -0.232437 0.0440563 2.83528 -0.569009 0.568289 -2.31012 0.878841 5.19481e-015 -3.10601e-018 -1.2424e-017 3.46545e-019 0 -0 -0.0072924 -0.0946687 -0.00839896 -0.00265474 0.0546827 -0.00590933 0.0193646 -15.9744 -0.00358688 0.0220433 21.0255 -0.00956107 -0.0190932 10.9497 0.0126866 0.32201 0.00804316 3.47642 -19.4787 -38.2386 -17.0858 -8.46354 39.0984 0.000933374 3.04579 1.04504 4.94992 6.89221e-009 -1.38323e-007 8.40541e-007 6.8922e-009 -1.38323e-007 8.40541e-007 3.77691e-015 2.98177e-016 -0 -0.308739 0.0033865 -3.4687 20.4585 -33.9223 15.0258 -15.5595 66.3959 14.7441 21.0084 -5.98906 -18.7812 1.59028e-015 3.18055e-015 -0 -1.59028e-015 -6.36111e-015 4.77083e-015 1.59028e-015 3.18055e-015 -0 
-0.727902 18.502 -5.76211 0.000959155 0.0202166 0.0233519 6.06643e-021 0 6.21202e-018 -18.5499 -4.02757 1.5469 2.72546 2.09109 18.344 -1.77278 2.59561 -20.0333 5.15544e-015 -3.10601e-018 -3.10601e-018 6.06643e-021 0 6.21202e-018 19.6204 -0.507959 -0.231718 0.0441076 2.83999 -0.569102 0.551345 -2.3196 0.882882 -6.50694e-015 -1.2424e-017 -1.2424e-017 6.06643e-021 0 6.21202e-018 -0.0152493 -0.118757 -0.00839897 0.0032126 0.0678344 -0.00800267 0.024471 -15.9678 -0.00499153 0.0280331 21.0322 -0.0125744 -0.0236133 10.9403 0.0141211 0.32201 0.00804316 3.47642 -19.472 -38.2303 -17.0624 -8.47568 39.0764 0.000933084 3.04206 1.04285 4.97201 6.8922e-009 -1.38323e-007 8.40541e-007 6.8922e-009 -1.38323e-007 8.40541e-007 2.78299e-015 -9.93923e-017 -1.59028e-015 -0.308739 0.0033865 -3.4687 20.4599 -33.9182 15.0134 -15.5687 66.4007 14.754 21.0133 -5.99004 -18.7817 -7.95139e-016 -3.18055e-015 3.18055e-015 0 0 -0 -7.95139e-016 -3.18055e-015 3.18055e-015 
-0.728917 18.5022 -5.75891 0.000954375 0.0208511 0.0357773 3.4882e-020 3.10601e-018 1.2424e-017 -18.544 -4.01129 1.55682 2.72227 2.06233 18.3745 -1.75457 2.61124 -20.0906 -3.13688e-015 1.55301e-018 3.10601e-018 3.4882e-020 3.10601e-018 1.2424e-017 19.6235 -0.482605 -0.238835 0.0439097 2.81689 -0.569738 0.544436 -2.32547 0.885376 -2.93191e-015 6.21202e-018 -2.48481e-017 3.4882e-020 3.10601e-018 1.2424e-017 -0.0297846 -0.136381 -0.00839898 0.0164579 0.0768464 -0.0107165 0.0287766 -15.9626 -0.0066849 0.0332793 21.0374 -0.0156606 -0.0276858 10.9367 0.0132903 0.32201 0.00804316 3.47642 -19.4665 -38.2134 -17.0417 -8.49343 39.0582 0.000932843 3.06446 1.03922 4.99387 6.8922e-009 -1.38323e-007 8.40541e-007 6.8922e-009 -1.38323e-007 8.40541e-007 2.23633e-016 3.97569e-016 -1.59028e-015 -0.308739 0.0033865 -3.4687 20.4528 -33.914 14.9886 -15.5716 66.3922 14.7629 21.0094 -5.98703 -18.7748 -3.18055e-015 -3.18055e-015 -0 2.38542e-015 -3.18055e-015 -0 -3.18055e-015 -3.18055e-015 -0 
-0.729842 18.5025 -5.75548 0.000949596 0.0202953 0.0502475 -1.51661e-020 3.10601e-018 1.2424e-017 -18.5368 -3.99304 1.56747 2.71937 2.02593 18.4231 -1.73808 2.63882 -20.169 8.04186e-016 0 3.10601e-018 -1.51661e-020 3.10601e-018 1.2424e-017 19.6257 -0.444896 -0.250283 0.0435522 2.77762 -0.57041 0.543866 -2.32895 0.886846 -5.47471e-015 6.21202e-018 3.72721e-017 -1.51661e-020 3.10601e-018 1.2424e-017 -0.0477252 -0.150933 -0.00839898 0.0336547 0.0836777 -0.013625 0.0325925 -15.9581 -0.00855183 0.0380696 21.0418 -0.0187883 -0.0310656 10.9367 0.0110468 0.32201 0.00804316 3.47642 -19.4614 -38.192 -17.0226 -8.51322 39.0448 0.000932666 3.10104 1.03509 5.01325 6.8922e-009 -1.38323e-007 8.40541e-007 6.8922e-009 -1.38323e-007 8.40541e-007 1.46604e-015 -4.96962e-016 -0 -0.308739 0.0033865 -3.4687 20.4413 -33.9095 14.9572 -15.5713 66.3769 14.7712 20.9997 -5.98179 -18.7642 1.59028e-015 -6.36111e-015 3.18055e-015 -2.38542e-015 3.18055e-015 -1.59028e-015 1.59028e-015 -6.36111e-015 3.18055e-015 
-0.730756 18.5028 -5.752 0.000944453 0.0207718 0.0632816 6.97639e-020 6.21202e-018 2.48481e-017 -18.5292 -3.9754 1.57769 2.71765 1.98922 18.4741 -1.7263 2.66727 -20.2472 3.42452e-015 1.55301e-018 6.21202e-018 6.97639e-020 6.21202e-018 2.48481e-017 19.6281 -0.407278 -0.261362 0.043156 2.73694 -0.570584 0.54544 -2.33126 0.887835 -7.25493e-015 0 -0 6.97639e-020 6.21202e-018 2.48481e-017 -0.0646005 -0.167437 -0.00839899 0.0500917 0.0910556 -0.0160165 0.0362908 -15.9534 -0.0104515 0.0427473 21.0466 -0.0219166 -0.0329987 10.9371 0.00837903 0.32201 0.00804316 3.47642 -19.4554 -38.1722 -17.0035 -8.52932 39.0406 0.000932611 3.13555 1.03206 5.02496 6.8922e-009 -1.38323e-007 8.40541e-007 6.8922e-009 -1.38323e-007 8.40541e-007 -1.04362e-015 9.93923e-016 -1.59028e-015 -0.308739 0.0033865 -3.4687 20.4315 -33.9048 14.927 -15.572 66.3635 14.7798 20.9872 -5.97671 -18.7555 7.95139e-016 6.36111e-015 1.59028e-015 7.95139e-016 0 1.59028e-015 7.95139e-016 6.36111e-015 1.59028e-015 
-0.731739 18.503 -5.74867 0.000331351 0.0244874 0.0714513 1.15262e-019 0 -0 -18.5219 -3.96085 1.58636 2.71796 1.95904 18.5123 -1.72237 2.68606 -20.3052 -1.49337e-015 -1.16475e-018 6.21202e-018 1.15262e-019 0 -0 19.632 -0.381738 -0.267523 0.0428318 2.70898 -0.569612 0.545212 -2.33346 0.888815 1.86643e-015 1.2424e-017 -1.2424e-017 1.15262e-019 0 -0 -0.0760599 -0.190863 -0.00806839 0.0612354 0.101655 -0.017204 0.0402261 -15.9475 -0.0122357 0.0476343 21.0525 -0.0249917 -0.0327077 10.935 0.00627297 0.32201 0.00804316 3.47642 -19.4466 -38.1596 -16.9824 -8.53618 39.0506 0.000932742 3.15286 1.03174 5.02306 6.8922e-009 -1.38323e-007 8.40541e-007 6.8922e-009 -1.38323e-007 8.40541e-007 -1.49089e-015 -1.98785e-016 -0 -0.308739 0.0033865 -3.46878 20.4293 -33.8998 14.9057 -15.578 66.361 14.7895 20.9746 -5.97413 -18.7542 -7.95139e-016 -6.36111e-015 -0 1.59028e-015 0 1.59028e-015 -7.95139e-016 -6.36111e-015 -0 
-0.732797 18.5031 -5.74543 -0.00236278 0.0321965 0.0740102 3.63986e-020 -1.2424e-017 -0 -18.514 -3.94851 1.59404 2.72114 1.93125 18.5427 -1.72851 2.69863 -20.3481 2.13065e-015 -9.70628e-019 -6.21202e-018 3.63986e-020 -1.2424e-017 -0 19.6377 -0.366734 -0.268954 0.0424577 2.69042 -0.565568 0.545157 -2.33349 0.888992 -1.11751e-015 0 1.2424e-017 3.63986e-020 -1.2424e-017 -0 -0.0819771 -0.222614 -0.00685336 0.0677113 0.115892 -0.0172518 0.0442964 -15.9401 -0.0137325 0.0525555 21.0599 -0.027799 -0.0294984 10.9311 0.00512523 0.32201 0.00804316 3.47642 -19.4316 -38.1504 -16.9557 -8.53426 39.0865 0.000933217 3.16267 1.03522 4.99416 6.8922e-009 -1.38323e-007 8.40541e-007 6.8922e-009 -1.38323e-007 8.40541e-007 1.46604e-015 4.96962e-016 -0 -0.308739 0.0033865 -3.46904 20.4356 -33.8944 14.8952 -15.5914 66.3736 14.8015 20.9607 -5.97473 -18.7627 4.77083e-015 3.18055e-015 -1.59028e-015 3.18055e-015 -6.36111e-015 3.18055e-015 4.77083e-015 3.18055e-015 -1.59028e-015 
-0.733883 18.5031 -5.74222 -0.00509995 0.042041 0.0734654 1.26182e-018 1.2424e-017 -2.48481e-017 -18.5059 -3.93783 1.60084 2.72594 1.90584 18.5691 -1.74111 2.7076 -20.3822 3.40945e-016 1.55301e-018 -0 1.26182e-018 1.2424e-017 -2.48481e-017 19.6442 -0.357199 -0.267931 0.0420858 2.67664 -0.560515 0.545634 -2.33263 0.88882 -1.26622e-014 2.48481e-017 2.48481e-017 1.26182e-018 1.2424e-017 -2.48481e-017 -0.0848015 -0.25877 -0.00565553 0.0713968 0.131959 -0.0164717 0.0484021 -15.932 -0.0151746 0.0574942 21.068 -0.0305587 -0.0244072 10.9263 0.00405269 0.32201 0.00804316 3.47642 -19.4145 -38.1448 -16.9278 -8.52614 39.1351 0.000933861 3.16448 1.04066 4.95338 6.8922e-009 -1.38323e-007 8.40541e-007 6.8922e-009 -1.38323e-007 8.40541e-007 2.03754e-015 1.98785e-016 -1.59028e-015 -0.308739 0.0033865 -3.46929 20.4464 -33.8888 14.8897 -15.608 66.3927 14.8144 20.9451 -5.97665 -18.7759 3.53113e-031 6.36111e-015 -3.18055e-015 2.38542e-015 -3.18055e-015 -0 3.53113e-031 6.36111e-015 -3.18055e-015 
